<?xml version="1.0" standalone="no"?>
<!DOCTYPE svg PUBLIC "-//W3C//DTD SVG 20010904//EN"
 "http://www.w3.org/TR/2001/REC-SVG-20010904/DTD/svg10.dtd">
<svg version="1.0" xmlns="http://www.w3.org/2000/svg"
 width="667.000000pt" height="640.000000pt" viewBox="0 0 667.000000 640.000000"
 preserveAspectRatio="xMidYMid meet">

<g transform="translate(0.000000,640.000000) scale(0.100000,-0.100000)"
fill="#000000" stroke="none">
<path d="M2760 5852 c-16 -6 -14 -5212 3 -5212 131 -4 591 0 595 5 4 4 9 491
12 1083 l5 1077 387 3 387 2 40 -52 c22 -29 82 -109 133 -178 51 -69 96 -129
100 -135 8 -9 61 -82 106 -143 52 -73 119 -161 141 -188 14 -17 33 -41 41 -54
8 -12 59 -81 112 -153 53 -72 102 -140 110 -150 11 -17 84 -115 139 -187 10
-14 75 -101 144 -195 68 -93 134 -181 145 -193 11 -13 20 -26 20 -28 0 -2 33
-48 74 -101 40 -54 125 -169 190 -255 72 -99 123 -158 133 -158 188 -2 736 0
739 2 7 8 -28 60 -116 173 -51 65 -103 133 -116 152 -12 19 -35 49 -49 66 -39
49 -218 282 -235 307 -8 12 -23 31 -32 43 -9 12 -50 65 -90 117 -41 52 -84
111 -98 130 -13 19 -30 39 -37 43 -7 4 -13 13 -13 19 0 6 -7 18 -15 27 -8 9
-51 63 -95 121 -44 58 -87 112 -95 121 -8 9 -15 19 -15 22 0 4 -8 15 -17 25
-10 11 -27 32 -38 47 -28 39 -162 217 -177 235 -7 8 -40 51 -74 96 -33 44 -66
87 -73 95 -6 8 -47 61 -91 119 -43 58 -86 112 -95 121 -8 9 -15 19 -15 23 0 3
-18 29 -40 57 -63 79 -53 100 50 114 30 4 71 13 90 20 19 8 52 16 72 20 20 3
50 12 65 20 15 8 37 15 48 15 11 0 29 6 40 14 11 7 33 16 50 20 51 13 234 106
319 163 156 106 307 253 379 371 68 112 77 128 87 152 6 14 17 39 24 55 33 73
45 106 52 141 4 22 11 48 17 59 18 35 39 205 44 360 7 201 -14 351 -72 530 -9
28 -21 67 -27 88 -6 20 -14 37 -18 37 -5 0 -11 13 -15 30 -4 16 -10 32 -15 35
-5 3 -18 24 -29 48 -64 130 -233 307 -401 418 -102 67 -275 159 -301 159 -6 0
-24 7 -42 17 -18 9 -45 20 -62 24 -16 4 -76 21 -132 37 -56 17 -125 33 -155
37 -29 4 -62 11 -74 15 -12 5 -115 18 -230 30 -192 19 -276 21 -1047 23 -460
1 -842 1 -847 -1z m1725 -558 c105 -8 219 -21 255 -29 36 -8 72 -15 80 -15 22
0 148 -39 196 -61 23 -11 46 -19 52 -19 16 0 131 -68 182 -108 156 -122 236
-237 285 -409 67 -237 43 -540 -59 -741 -159 -312 -511 -493 -1036 -532 -74
-5 -343 -10 -596 -10 -412 0 -463 2 -468 16 -3 9 -6 440 -6 958 0 731 3 945
12 954 17 17 846 14 1103 -4z"/>
<path d="M1870 2371 c0 -154 3 -286 6 -295 5 -14 41 -16 295 -16 l289 0 0 295
0 295 -295 0 -295 0 0 -279z"/>
<path d="M1883 1953 c-10 -3 -13 -73 -13 -299 l0 -294 295 0 295 0 -2 298 -3
297 -280 2 c-154 1 -286 -1 -292 -4z"/>
<path d="M1177 1943 c-4 -3 -7 -136 -7 -295 l0 -288 294 0 c272 0 295 1 299
18 3 9 2 141 -2 292 l-6 275 -286 3 c-157 1 -288 -1 -292 -5z"/>
<path d="M476 1228 c-8 -30 -8 -516 0 -545 l6 -23 277 0 c202 0 280 3 289 12
17 17 17 549 0 566 -9 9 -87 12 -289 12 l-277 0 -6 -22z"/>
<path d="M1175 1238 c-3 -7 -4 -139 -3 -293 l3 -280 295 0 295 0 3 283 2 282
-24 10 c-13 5 -146 9 -295 10 -213 0 -273 -2 -276 -12z"/>
<path d="M1875 1228 c-3 -13 -4 -144 -3 -293 l3 -270 293 -3 292 -2 -2 292 -3
293 -287 3 -288 2 -5 -22z"/>
</g>
</svg>
